<svg width="1280" height="720" viewBox="0 0 1280 720" fill="none" xmlns="http://www.w3.org/2000/svg">
  <defs>
    <radialGradient id="target" cx="0" cy="0" r="1" gradientUnits="userSpaceOnUse" gradientTransform="translate(640 360) rotate(90) scale(230)">
      <stop stop-color="#ffffff"/>
      <stop offset="0.28" stop-color="#9df7ff"/>
      <stop offset="0.56" stop-color="#5a8cff"/>
      <stop offset="1" stop-color="#171b3a"/>
    </radialGradient>
    <linearGradient id="bg" x1="0" y1="0" x2="1280" y2="720" gradientUnits="userSpaceOnUse">
      <stop stop-color="#101827"/>
      <stop offset="1" stop-color="#26163b"/>
    </linearGradient>
    <filter id="shadow" x="286" y="70" width="708" height="580" filterUnits="userSpaceOnUse" color-interpolation-filters="sRGB">
      <feDropShadow dx="0" dy="28" stdDeviation="32" flood-color="#000000" flood-opacity="0.38"/>
    </filter>
  </defs>
  <rect width="1280" height="720" rx="38" fill="url(#bg)"/>
  <path d="M0 602C172 536 249 634 418 584C588 534 628 433 817 480C985 522 1055 622 1280 548V720H0V602Z" fill="#75efff" opacity="0.08"/>
  <circle cx="178" cy="158" r="88" stroke="#72efff" stroke-width="3" opacity="0.14"/>
  <circle cx="1110" cy="142" r="54" fill="#ff6fd8" opacity="0.16"/>
  <g filter="url(#shadow)">
    <rect x="318" y="104" width="644" height="512" rx="38" fill="#0b1020"/>
    <rect x="356" y="142" width="568" height="436" rx="30" fill="#111936" stroke="#72efff" stroke-opacity="0.35" stroke-width="2"/>
    <circle cx="640" cy="360" r="172" fill="url(#target)"/>
    <circle cx="640" cy="360" r="122" stroke="#ffffff" stroke-width="18" opacity="0.8"/>
    <circle cx="640" cy="360" r="72" stroke="#ff6fd8" stroke-width="20" opacity="0.9"/>
    <circle cx="640" cy="360" r="22" fill="#ffffff"/>
    <path d="M640 158V252" stroke="#ffffff" stroke-width="10" stroke-linecap="round" opacity="0.88"/>
    <path d="M640 468V562" stroke="#ffffff" stroke-width="10" stroke-linecap="round" opacity="0.88"/>
    <path d="M438 360H532" stroke="#ffffff" stroke-width="10" stroke-linecap="round" opacity="0.88"/>
    <path d="M748 360H842" stroke="#ffffff" stroke-width="10" stroke-linecap="round" opacity="0.88"/>
  </g>
  <text x="90" y="640" font-family="Arial, sans-serif" font-size="30" font-weight="800" fill="#e9fbff" opacity="0.82">AIM TRAINER</text>
  <text x="1190" y="86" text-anchor="end" font-family="Arial, sans-serif" font-size="28" font-weight="800" fill="#e9fbff" opacity="0.8">30 SEC</text>
</svg>
