<svg width="1280" height="720" viewBox="0 0 1280 720" fill="none" xmlns="http://www.w3.org/2000/svg">
  <defs>
    <linearGradient id="bg" x1="0" y1="0" x2="1280" y2="720" gradientUnits="userSpaceOnUse">
      <stop stop-color="#15172f"/>
      <stop offset="1" stop-color="#341a3d"/>
    </linearGradient>
    <filter id="shadow" x="222" y="62" width="836" height="604" filterUnits="userSpaceOnUse" color-interpolation-filters="sRGB">
      <feDropShadow dx="0" dy="30" stdDeviation="34" flood-color="#000000" flood-opacity="0.38"/>
    </filter>
  </defs>
  <rect width="1280" height="720" rx="38" fill="url(#bg)"/>
  <circle cx="166" cy="152" r="92" fill="#72efff" opacity="0.13"/>
  <circle cx="1116" cy="590" r="126" fill="#ffcf6d" opacity="0.13"/>
  <g filter="url(#shadow)">
    <rect x="270" y="104" width="740" height="512" rx="38" fill="#0c1026"/>
    <rect x="326" y="152" width="628" height="352" rx="26" fill="#141a3a" stroke="#ffffff" stroke-opacity="0.14" stroke-width="2"/>
    <g>
      <rect x="374" y="196" width="72" height="28" rx="8" fill="#ff7d7d"/>
      <rect x="456" y="196" width="72" height="28" rx="8" fill="#ff7d7d"/>
      <rect x="538" y="196" width="72" height="28" rx="8" fill="#ff7d7d"/>
      <rect x="620" y="196" width="72" height="28" rx="8" fill="#ff7d7d"/>
      <rect x="702" y="196" width="72" height="28" rx="8" fill="#ff7d7d"/>
      <rect x="784" y="196" width="72" height="28" rx="8" fill="#ff7d7d"/>
      <rect x="374" y="234" width="72" height="28" rx="8" fill="#ffcf6d"/>
      <rect x="456" y="234" width="72" height="28" rx="8" fill="#ffcf6d"/>
      <rect x="538" y="234" width="72" height="28" rx="8" fill="#ffcf6d"/>
      <rect x="620" y="234" width="72" height="28" rx="8" fill="#ffcf6d"/>
      <rect x="702" y="234" width="72" height="28" rx="8" fill="#ffcf6d"/>
      <rect x="784" y="234" width="72" height="28" rx="8" fill="#ffcf6d"/>
      <rect x="374" y="272" width="72" height="28" rx="8" fill="#72efff"/>
      <rect x="456" y="272" width="72" height="28" rx="8" fill="#72efff"/>
      <rect x="538" y="272" width="72" height="28" rx="8" fill="#72efff"/>
      <rect x="620" y="272" width="72" height="28" rx="8" fill="#72efff"/>
      <rect x="702" y="272" width="72" height="28" rx="8" fill="#72efff"/>
      <rect x="784" y="272" width="72" height="28" rx="8" fill="#72efff"/>
    </g>
    <circle cx="674" cy="398" r="16" fill="#ffffff"/>
    <rect x="570" y="462" width="140" height="20" rx="10" fill="#c99cff"/>
    <path d="M674 398L706 462" stroke="#ffffff" stroke-opacity="0.24" stroke-width="4" stroke-dasharray="8 8"/>
  </g>
  <text x="88" y="640" font-family="Arial, sans-serif" font-size="30" font-weight="800" fill="#f5f2ff" opacity="0.84">BREAKOUT</text>
  <text x="1190" y="86" text-anchor="end" font-family="Arial, sans-serif" font-size="28" font-weight="800" fill="#f5f2ff" opacity="0.8">ARCADE</text>
</svg>
