<svg width="1280" height="720" viewBox="0 0 1280 720" fill="none" xmlns="http://www.w3.org/2000/svg">
  <rect width="1280" height="720" fill="#07111b"/>
  <circle cx="250" cy="130" r="220" fill="#73d4ff" fill-opacity=".18"/>
  <circle cx="1030" cy="590" r="260" fill="#ffcf6d" fill-opacity=".1"/>
  <rect x="238" y="76" width="804" height="568" rx="46" fill="#0d1723" stroke="#f4f1e8" stroke-opacity=".13" stroke-width="2"/>
  <text x="640" y="140" text-anchor="middle" fill="#f4f1e8" font-family="Segoe UI, sans-serif" font-size="48" font-weight="850">TOWER OF HANOI</text>
  <text x="640" y="184" text-anchor="middle" fill="#9aa39d" font-family="Segoe UI, sans-serif" font-size="22">MOVE THE DISKS / MINIMUM STEPS</text>
  <g transform="translate(318 250)">
    <g fill="#f4f1e8" fill-opacity=".28">
      <rect x="70" y="10" width="10" height="250" rx="5"/>
      <rect x="0" y="250" width="150" height="14" rx="7"/>
      <rect x="315" y="10" width="10" height="250" rx="5"/>
      <rect x="245" y="250" width="150" height="14" rx="7"/>
      <rect x="560" y="10" width="10" height="250" rx="5"/>
      <rect x="490" y="250" width="150" height="14" rx="7"/>
    </g>
    <rect x="8" y="218" width="134" height="30" rx="15" fill="#ffcf6d"/>
    <rect x="22" y="180" width="106" height="30" rx="15" fill="#73d4ff"/>
    <rect x="36" y="142" width="78" height="30" rx="15" fill="#c99cff"/>
    <rect x="50" y="104" width="50" height="30" rx="15" fill="#9df08a"/>
    <rect x="510" y="218" width="110" height="30" rx="15" fill="#73d4ff" fill-opacity=".55"/>
  </g>
  <g transform="translate(504 574)">
    <rect width="272" height="46" rx="23" fill="#73d4ff" fill-opacity=".16" stroke="#73d4ff" stroke-opacity=".55"/>
    <text x="136" y="31" text-anchor="middle" fill="#f4f1e8" font-family="Segoe UI, sans-serif" font-size="19" font-weight="800">2ⁿ - 1 MOVES</text>
  </g>
</svg>
