<svg width="1280" height="800" viewBox="0 0 1280 800" fill="none" xmlns="http://www.w3.org/2000/svg">
  <rect width="1280" height="800" fill="#101516"/>
  <circle cx="1010" cy="125" r="285" fill="#F4E66A" opacity=".16"/>
  <rect x="250" y="90" width="780" height="620" rx="18" fill="#192021" stroke="#F4F1E8" stroke-opacity=".16" stroke-width="3"/>
  <g transform="translate(365 135)">
    <rect width="550" height="550" rx="22" fill="#0B0F10" stroke="#F4F1E8" stroke-opacity=".16" stroke-width="4"/>
    <g>
      <rect x="35" y="35" width="80" height="80" rx="18" fill="#F4E66A" filter="url(#glow)"/>
      <rect x="130" y="35" width="80" height="80" rx="18" fill="#243030"/>
      <rect x="225" y="35" width="80" height="80" rx="18" fill="#F4E66A" filter="url(#glow)"/>
      <rect x="320" y="35" width="80" height="80" rx="18" fill="#243030"/>
      <rect x="415" y="35" width="80" height="80" rx="18" fill="#F4E66A" filter="url(#glow)"/>
      <rect x="35" y="130" width="80" height="80" rx="18" fill="#243030"/>
      <rect x="130" y="130" width="80" height="80" rx="18" fill="#F4E66A" filter="url(#glow)"/>
      <rect x="225" y="130" width="80" height="80" rx="18" fill="#F4E66A" filter="url(#glow)"/>
      <rect x="320" y="130" width="80" height="80" rx="18" fill="#243030"/>
      <rect x="415" y="130" width="80" height="80" rx="18" fill="#243030"/>
      <rect x="35" y="225" width="80" height="80" rx="18" fill="#F4E66A" filter="url(#glow)"/>
      <rect x="130" y="225" width="80" height="80" rx="18" fill="#243030"/>
      <rect x="225" y="225" width="80" height="80" rx="18" fill="#243030"/>
      <rect x="320" y="225" width="80" height="80" rx="18" fill="#F4E66A" filter="url(#glow)"/>
      <rect x="415" y="225" width="80" height="80" rx="18" fill="#243030"/>
      <rect x="35" y="320" width="80" height="80" rx="18" fill="#243030"/>
      <rect x="130" y="320" width="80" height="80" rx="18" fill="#F4E66A" filter="url(#glow)"/>
      <rect x="225" y="320" width="80" height="80" rx="18" fill="#243030"/>
      <rect x="320" y="320" width="80" height="80" rx="18" fill="#F4E66A" filter="url(#glow)"/>
      <rect x="415" y="320" width="80" height="80" rx="18" fill="#F4E66A" filter="url(#glow)"/>
      <rect x="35" y="415" width="80" height="80" rx="18" fill="#F4E66A" filter="url(#glow)"/>
      <rect x="130" y="415" width="80" height="80" rx="18" fill="#243030"/>
      <rect x="225" y="415" width="80" height="80" rx="18" fill="#F4E66A" filter="url(#glow)"/>
      <rect x="320" y="415" width="80" height="80" rx="18" fill="#243030"/>
      <rect x="415" y="415" width="80" height="80" rx="18" fill="#243030"/>
    </g>
  </g>
  <text x="640" y="744" fill="#F4E66A" font-family="Segoe UI, sans-serif" font-size="44" font-weight="800" text-anchor="middle" letter-spacing=".16em">LIGHTS OUT / PLAY NOW</text>
  <defs>
    <filter id="glow" x="-20%" y="-20%" width="140%" height="140%">
      <feDropShadow dx="0" dy="0" stdDeviation="8" flood-color="#F4E66A" flood-opacity=".58"/>
    </filter>
  </defs>
</svg>
