<svg width="1280" height="800" viewBox="0 0 1280 800" fill="none" xmlns="http://www.w3.org/2000/svg">
  <rect width="1280" height="800" fill="#101516"/>
  <circle cx="1005" cy="125" r="285" fill="#C99CFF" opacity=".16"/>
  <rect x="245" y="95" width="790" height="610" rx="18" fill="#192021" stroke="#F4F1E8" stroke-opacity=".16" stroke-width="3"/>
  <g transform="translate(346 148)">
    <rect width="588" height="472" rx="14" fill="#0B0F10" stroke="#F4F1E8" stroke-opacity=".16" stroke-width="3"/>
    <g font-family="Segoe UI Emoji, Segoe UI, sans-serif" font-weight="800" text-anchor="middle" dominant-baseline="middle">
      <rect x="30" y="30" width="116" height="132" rx="13" fill="#2B2338" stroke="#C99CFF" stroke-opacity=".58" stroke-width="3"/>
      <rect x="162" y="30" width="116" height="132" rx="13" fill="#F4F1E8"/>
      <rect x="294" y="30" width="116" height="132" rx="13" fill="#2B2338" stroke="#C99CFF" stroke-opacity=".58" stroke-width="3"/>
      <rect x="426" y="30" width="116" height="132" rx="13" fill="#F4F1E8"/>
      <rect x="30" y="178" width="116" height="132" rx="13" fill="#F4F1E8"/>
      <rect x="162" y="178" width="116" height="132" rx="13" fill="#2B2338" stroke="#C99CFF" stroke-opacity=".58" stroke-width="3"/>
      <rect x="294" y="178" width="116" height="132" rx="13" fill="#F4F1E8"/>
      <rect x="426" y="178" width="116" height="132" rx="13" fill="#2B2338" stroke="#C99CFF" stroke-opacity=".58" stroke-width="3"/>
      <rect x="30" y="326" width="116" height="116" rx="13" fill="#2B2338" stroke="#C99CFF" stroke-opacity=".58" stroke-width="3"/>
      <rect x="162" y="326" width="116" height="116" rx="13" fill="#F4F1E8"/>
      <rect x="294" y="326" width="116" height="116" rx="13" fill="#2B2338" stroke="#C99CFF" stroke-opacity=".58" stroke-width="3"/>
      <rect x="426" y="326" width="116" height="116" rx="13" fill="#F4F1E8"/>
      <text x="88" y="96" fill="#C99CFF" font-size="54">?</text>
      <text x="220" y="96" font-size="54">🍎</text>
      <text x="352" y="96" fill="#C99CFF" font-size="54">?</text>
      <text x="484" y="96" font-size="54">🌙</text>
      <text x="88" y="244" font-size="54">⭐</text>
      <text x="220" y="244" fill="#C99CFF" font-size="54">?</text>
      <text x="352" y="244" font-size="54">🍎</text>
      <text x="484" y="244" fill="#C99CFF" font-size="54">?</text>
      <text x="88" y="384" fill="#C99CFF" font-size="54">?</text>
      <text x="220" y="384" font-size="54">⭐</text>
      <text x="352" y="384" fill="#C99CFF" font-size="54">?</text>
      <text x="484" y="384" font-size="54">🌙</text>
    </g>
  </g>
  <text x="640" y="744" fill="#C99CFF" font-family="Segoe UI, sans-serif" font-size="44" font-weight="800" text-anchor="middle" letter-spacing=".16em">MEMORY MATCH / PLAY NOW</text>
</svg>
