<svg width="1280" height="720" viewBox="0 0 1280 720" fill="none" xmlns="http://www.w3.org/2000/svg">
  <rect width="1280" height="720" fill="#07100c"/>
  <circle cx="260" cy="130" r="220" fill="#51a98d" fill-opacity=".18"/>
  <circle cx="1032" cy="584" r="260" fill="#9df08a" fill-opacity=".1"/>
  <rect x="242" y="74" width="796" height="572" rx="46" fill="#0e1713" stroke="#f4f1e8" stroke-opacity=".13" stroke-width="2"/>
  <text x="640" y="140" text-anchor="middle" fill="#f4f1e8" font-family="Segoe UI, sans-serif" font-size="48" font-weight="850">REVERSI</text>
  <text x="640" y="182" text-anchor="middle" fill="#9aa39d" font-family="Segoe UI, sans-serif" font-size="22">BLACK VS COM WHITE</text>
  <g transform="translate(424 216)">
    <rect width="432" height="360" rx="26" fill="#143f30" stroke="#f4f1e8" stroke-opacity=".16"/>
    <g stroke="#06130d" stroke-opacity=".55" stroke-width="3">
      <path d="M54 18V342M108 18V342M162 18V342M216 18V342M270 18V342M324 18V342M378 18V342"/>
      <path d="M18 45H414M18 90H414M18 135H414M18 180H414M18 225H414M18 270H414M18 315H414"/>
    </g>
    <circle cx="189" cy="158" r="19" fill="url(#whiteDisc)"/>
    <circle cx="243" cy="158" r="19" fill="url(#blackDisc)"/>
    <circle cx="189" cy="203" r="19" fill="url(#blackDisc)"/>
    <circle cx="243" cy="203" r="19" fill="url(#whiteDisc)"/>
    <circle cx="135" cy="158" r="10" fill="#f4f1e8" fill-opacity=".35"/>
    <circle cx="189" cy="113" r="10" fill="#f4f1e8" fill-opacity=".35"/>
    <circle cx="243" cy="248" r="10" fill="#f4f1e8" fill-opacity=".35"/>
    <circle cx="297" cy="203" r="10" fill="#f4f1e8" fill-opacity=".35"/>
  </g>
  <g transform="translate(484 612)">
    <rect width="312" height="42" rx="21" fill="#51a98d" fill-opacity=".18" stroke="#51a98d" stroke-opacity=".56"/>
    <text x="156" y="28" text-anchor="middle" fill="#f4f1e8" font-family="Segoe UI, sans-serif" font-size="18" font-weight="750">FLIP THE DISCS</text>
  </g>
  <defs>
    <radialGradient id="blackDisc" cx="0" cy="0" r="1" gradientUnits="userSpaceOnUse" gradientTransform="translate(232 146) rotate(76) scale(35)">
      <stop stop-color="#696969"/>
      <stop offset=".56" stop-color="#111"/>
      <stop offset="1" stop-color="#020202"/>
    </radialGradient>
    <radialGradient id="whiteDisc" cx="0" cy="0" r="1" gradientUnits="userSpaceOnUse" gradientTransform="translate(178 146) rotate(76) scale(35)">
      <stop stop-color="#fff"/>
      <stop offset=".6" stop-color="#e7e0d4"/>
      <stop offset="1" stop-color="#b7afa0"/>
    </radialGradient>
  </defs>
</svg>
