<svg width="1280" height="720" viewBox="0 0 1280 720" fill="none" xmlns="http://www.w3.org/2000/svg">
  <rect width="1280" height="720" fill="#0c1112"/>
  <circle cx="1010" cy="150" r="250" fill="#9df08a" opacity="0.12"/>
  <circle cx="230" cy="610" r="250" fill="#ff8ac7" opacity="0.1"/>
  <rect x="88" y="76" width="1104" height="568" rx="42" fill="#141a1b" stroke="#f4f1e8" stroke-opacity="0.12"/>
  <text x="124" y="142" fill="#8f9997" font-family="Inter, Arial, sans-serif" font-size="22" font-weight="800" letter-spacing="5">PUZZLE / INTERNAL GAME</text>
  <text x="124" y="208" fill="#f4f1e8" font-family="Inter, Arial, sans-serif" font-size="68" font-weight="900">さめがめ</text>
  <text x="126" y="256" fill="#aab4b0" font-family="Inter, Arial, sans-serif" font-size="24">同じ色の塊をまとめて消す定番パズル</text>
  <g transform="translate(702 122)">
    <rect width="360" height="360" rx="30" fill="#080d18" stroke="#f4f1e8" stroke-opacity="0.12"/>
    <g transform="translate(30 30)">
      <rect x="0" y="0" width="48" height="48" rx="10" fill="#ff7d7d"/>
      <rect x="52" y="0" width="48" height="48" rx="10" fill="#ff7d7d"/>
      <rect x="104" y="0" width="48" height="48" rx="10" fill="#ffcf6d"/>
      <rect x="156" y="0" width="48" height="48" rx="10" fill="#9df08a"/>
      <rect x="208" y="0" width="48" height="48" rx="10" fill="#72efff"/>
      <rect x="260" y="0" width="48" height="48" rx="10" fill="#c99cff"/>
      <rect x="0" y="52" width="48" height="48" rx="10" fill="#ff7d7d"/>
      <rect x="52" y="52" width="48" height="48" rx="10" fill="#ffcf6d"/>
      <rect x="104" y="52" width="48" height="48" rx="10" fill="#ffcf6d"/>
      <rect x="156" y="52" width="48" height="48" rx="10" fill="#9df08a"/>
      <rect x="208" y="52" width="48" height="48" rx="10" fill="#72efff"/>
      <rect x="260" y="52" width="48" height="48" rx="10" fill="#c99cff"/>
      <rect x="0" y="104" width="48" height="48" rx="10" fill="#9df08a"/>
      <rect x="52" y="104" width="48" height="48" rx="10" fill="#9df08a"/>
      <rect x="104" y="104" width="48" height="48" rx="10" fill="#9df08a"/>
      <rect x="156" y="104" width="48" height="48" rx="10" fill="#72efff"/>
      <rect x="208" y="104" width="48" height="48" rx="10" fill="#72efff"/>
      <rect x="260" y="104" width="48" height="48" rx="10" fill="#c99cff"/>
      <rect x="0" y="156" width="48" height="48" rx="10" fill="#ff8ac7" opacity="0.22"/>
      <rect x="52" y="156" width="48" height="48" rx="10" fill="#ff8ac7" opacity="0.22"/>
      <rect x="104" y="156" width="48" height="48" rx="10" fill="#9df08a"/>
      <rect x="156" y="156" width="48" height="48" rx="10" fill="#72efff"/>
      <rect x="208" y="156" width="48" height="48" rx="10" fill="#c99cff"/>
      <rect x="260" y="156" width="48" height="48" rx="10" fill="#c99cff"/>
      <rect x="0" y="208" width="48" height="48" rx="10" fill="#ff8ac7" opacity="0.22"/>
      <rect x="52" y="208" width="48" height="48" rx="10" fill="#ff8ac7"/>
      <rect x="104" y="208" width="48" height="48" rx="10" fill="#ff8ac7"/>
      <rect x="156" y="208" width="48" height="48" rx="10" fill="#ff8ac7"/>
      <rect x="208" y="208" width="48" height="48" rx="10" fill="#c99cff"/>
      <rect x="260" y="208" width="48" height="48" rx="10" fill="#ffcf6d"/>
      <rect x="0" y="260" width="48" height="48" rx="10" fill="#ff8ac7" opacity="0.22"/>
      <rect x="52" y="260" width="48" height="48" rx="10" fill="#ff8ac7" opacity="0.22"/>
      <rect x="104" y="260" width="48" height="48" rx="10" fill="#72efff"/>
      <rect x="156" y="260" width="48" height="48" rx="10" fill="#72efff"/>
      <rect x="208" y="260" width="48" height="48" rx="10" fill="#ffcf6d"/>
      <rect x="260" y="260" width="48" height="48" rx="10" fill="#ffcf6d"/>
    </g>
  </g>
  <g transform="translate(126 340)">
    <rect width="178" height="96" rx="18" fill="#080d18" stroke="#f4f1e8" stroke-opacity="0.12"/>
    <text x="28" y="38" fill="#8f9997" font-family="Inter, Arial, sans-serif" font-size="16" font-weight="800" letter-spacing="3">SCORE</text>
    <text x="28" y="76" fill="#f4f1e8" font-family="Inter, Arial, sans-serif" font-size="38" font-weight="900">144</text>
  </g>
  <g transform="translate(326 340)">
    <rect width="178" height="96" rx="18" fill="#080d18" stroke="#f4f1e8" stroke-opacity="0.12"/>
    <text x="28" y="38" fill="#8f9997" font-family="Inter, Arial, sans-serif" font-size="16" font-weight="800" letter-spacing="3">LEFT</text>
    <text x="28" y="76" fill="#f4f1e8" font-family="Inter, Arial, sans-serif" font-size="38" font-weight="900">38</text>
  </g>
  <path d="M128 522h390" stroke="#f4f1e8" stroke-opacity="0.12"/>
  <text x="128" y="574" fill="#f4f1e8" font-family="Inter, Arial, sans-serif" font-size="28" font-weight="800">CLICK GROUPS, CHASE BIG SCORES</text>
</svg>
