<svg width="1280" height="800" viewBox="0 0 1280 800" fill="none" xmlns="http://www.w3.org/2000/svg">
  <rect width="1280" height="800" fill="#101516"/>
  <circle cx="1010" cy="120" r="280" fill="#8FB7FF" opacity=".16"/>
  <rect x="300" y="100" width="680" height="600" rx="18" fill="#192021" stroke="#F4F1E8" stroke-opacity=".16" stroke-width="3"/>
  <g transform="translate(390 150)">
    <rect width="500" height="500" rx="8" fill="#0B0F10"/>
    <g stroke="#F4F1E8" stroke-opacity=".22">
      <path d="M55.56 0V500M111.11 0V500M166.67 0V500M222.22 0V500M277.78 0V500M333.33 0V500M388.89 0V500M444.44 0V500"/>
      <path d="M0 55.56H500M0 111.11H500M0 166.67H500M0 222.22H500M0 277.78H500M0 333.33H500M0 388.89H500M0 444.44H500"/>
    </g>
    <g stroke="#8FB7FF" stroke-width="6">
      <path d="M166.67 0V500M333.33 0V500"/>
      <path d="M0 166.67H500M0 333.33H500"/>
    </g>
    <g fill="#F4F1E8" font-family="Segoe UI, sans-serif" font-size="38" font-weight="700" text-anchor="middle" dominant-baseline="middle">
      <text x="27.78" y="27.78">5</text><text x="194.45" y="27.78">3</text><text x="472.22" y="27.78">7</text>
      <text x="83.33" y="83.33">6</text><text x="250" y="83.33">1</text><text x="305.56" y="83.33">9</text>
      <text x="138.89" y="138.89">9</text><text x="194.45" y="138.89">8</text><text x="416.67" y="138.89">6</text>
      <text x="27.78" y="250">8</text><text x="250" y="250">6</text><text x="472.22" y="250">3</text>
      <text x="83.33" y="416.67">2</text><text x="305.56" y="416.67">8</text><text x="416.67" y="416.67">5</text>
    </g>
  </g>
  <text x="640" y="735" fill="#8FB7FF" font-family="Segoe UI, sans-serif" font-size="44" font-weight="800" text-anchor="middle" letter-spacing=".18em">SUDOKU / PLAY NOW</text>
</svg>
