<svg width="1280" height="720" viewBox="0 0 1280 720" fill="none" xmlns="http://www.w3.org/2000/svg">
  <defs>
    <linearGradient id="bg" x1="0" y1="0" x2="1280" y2="720" gradientUnits="userSpaceOnUse">
      <stop stop-color="#1d2715"/>
      <stop offset="1" stop-color="#513323"/>
    </linearGradient>
    <filter id="shadow" x="206" y="58" width="868" height="608" filterUnits="userSpaceOnUse" color-interpolation-filters="sRGB">
      <feDropShadow dx="0" dy="30" stdDeviation="34" flood-color="#000000" flood-opacity="0.36"/>
    </filter>
  </defs>
  <rect width="1280" height="720" rx="38" fill="url(#bg)"/>
  <circle cx="170" cy="148" r="92" fill="#9df08a" opacity="0.13"/>
  <circle cx="1118" cy="582" r="126" fill="#ffcf6d" opacity="0.14"/>
  <g filter="url(#shadow)">
    <rect x="256" y="102" width="768" height="516" rx="42" fill="#151f13"/>
    <rect x="310" y="156" width="660" height="408" rx="30" fill="#263719" stroke="#ffcf6d" stroke-opacity="0.24" stroke-width="2"/>
    <g>
      <ellipse cx="430" cy="270" rx="80" ry="34" fill="#0b120a"/>
      <ellipse cx="640" cy="270" rx="80" ry="34" fill="#0b120a"/>
      <ellipse cx="850" cy="270" rx="80" ry="34" fill="#0b120a"/>
      <ellipse cx="430" cy="382" rx="80" ry="34" fill="#0b120a"/>
      <ellipse cx="640" cy="382" rx="80" ry="34" fill="#0b120a"/>
      <ellipse cx="850" cy="382" rx="80" ry="34" fill="#0b120a"/>
      <ellipse cx="430" cy="494" rx="80" ry="34" fill="#0b120a"/>
      <ellipse cx="640" cy="494" rx="80" ry="34" fill="#0b120a"/>
      <ellipse cx="850" cy="494" rx="80" ry="34" fill="#0b120a"/>
    </g>
    <g>
      <circle cx="430" cy="234" r="42" fill="#b98659"/>
      <circle cx="414" cy="224" r="7" fill="#111"/>
      <circle cx="446" cy="224" r="7" fill="#111"/>
      <path d="M416 244C426 254 437 254 448 244" stroke="#111" stroke-width="5" stroke-linecap="round"/>
      <circle cx="850" cy="346" r="42" fill="#ffd76d"/>
      <circle cx="834" cy="336" r="7" fill="#111"/>
      <circle cx="866" cy="336" r="7" fill="#111"/>
      <path d="M836 356C848 366 860 366 872 356" stroke="#111" stroke-width="5" stroke-linecap="round"/>
      <circle cx="640" cy="458" r="38" fill="#242424"/>
      <text x="640" y="472" text-anchor="middle" font-family="Arial, sans-serif" font-size="42" font-weight="900" fill="#fff">!</text>
    </g>
    <text x="640" y="212" text-anchor="middle" font-family="Arial, sans-serif" font-size="48" font-weight="900" fill="#fff4cc">WHACK!</text>
  </g>
  <text x="88" y="640" font-family="Arial, sans-serif" font-size="30" font-weight="800" fill="#fff4cc" opacity="0.84">WHACK-A-MOLE</text>
  <text x="1190" y="86" text-anchor="end" font-family="Arial, sans-serif" font-size="28" font-weight="800" fill="#fff4cc" opacity="0.8">30 SEC</text>
</svg>
