<svg width="1280" height="720" viewBox="0 0 1280 720" fill="none" xmlns="http://www.w3.org/2000/svg">
  <rect width="1280" height="720" fill="#06130e"/>
  <circle cx="260" cy="130" r="220" fill="#d9a84e" fill-opacity=".18"/>
  <circle cx="1026" cy="584" r="250" fill="#51a98d" fill-opacity=".13"/>
  <rect x="238" y="76" width="804" height="568" rx="46" fill="#0d241b" stroke="#f4f1e8" stroke-opacity=".13" stroke-width="2"/>
  <text x="640" y="140" text-anchor="middle" fill="#f4f1e8" font-family="Segoe UI, sans-serif" font-size="48" font-weight="850">BLACKJACK</text>
  <text x="640" y="184" text-anchor="middle" fill="#9aa39d" font-family="Segoe UI, sans-serif" font-size="22">HIT OR STAND / REACH 21</text>
  <g transform="translate(370 238)">
    <rect x="0" y="0" width="142" height="200" rx="18" fill="#f7f1e4"/>
    <text x="24" y="48" fill="#121212" font-family="Segoe UI, sans-serif" font-size="42" font-weight="900">A</text>
    <text x="104" y="164" text-anchor="middle" fill="#121212" font-family="Segoe UI, sans-serif" font-size="66" font-weight="900">♠</text>
  </g>
  <g transform="translate(540 238)">
    <rect x="0" y="0" width="142" height="200" rx="18" fill="#f7f1e4"/>
    <text x="24" y="48" fill="#c9263a" font-family="Segoe UI, sans-serif" font-size="42" font-weight="900">K</text>
    <text x="104" y="164" text-anchor="middle" fill="#c9263a" font-family="Segoe UI, sans-serif" font-size="66" font-weight="900">♥</text>
  </g>
  <g transform="translate(710 238)">
    <rect x="0" y="0" width="142" height="200" rx="18" fill="#233a31"/>
    <path d="M18 24H124M18 54H124M18 84H124M18 114H124M18 144H124M18 174H124" stroke="#d9a84e" stroke-opacity=".28" stroke-width="8"/>
    <text x="71" y="122" text-anchor="middle" fill="#f4f1e8" font-family="Segoe UI, sans-serif" font-size="62" font-weight="900">?</text>
  </g>
  <g transform="translate(470 510)">
    <rect width="156" height="54" rx="27" fill="#d9a84e"/>
    <text x="78" y="36" text-anchor="middle" fill="#06130e" font-family="Segoe UI, sans-serif" font-size="22" font-weight="850">HIT</text>
  </g>
  <g transform="translate(654 510)">
    <rect width="156" height="54" rx="27" fill="#51a98d"/>
    <text x="78" y="36" text-anchor="middle" fill="#06130e" font-family="Segoe UI, sans-serif" font-size="22" font-weight="850">STAND</text>
  </g>
</svg>
