<svg width="1280" height="720" viewBox="0 0 1280 720" fill="none" xmlns="http://www.w3.org/2000/svg">
  <rect width="1280" height="720" fill="#07101c"/>
  <circle cx="250" cy="130" r="220" fill="#ffcf6d" fill-opacity=".16"/>
  <circle cx="1030" cy="590" r="260" fill="#ff5d5d" fill-opacity=".12"/>
  <rect x="238" y="76" width="804" height="568" rx="46" fill="#0d1626" stroke="#f4f1e8" stroke-opacity=".13" stroke-width="2"/>
  <text x="640" y="140" text-anchor="middle" fill="#f4f1e8" font-family="Segoe UI, sans-serif" font-size="48" font-weight="850">CONNECT FOUR</text>
  <text x="640" y="184" text-anchor="middle" fill="#9aa39d" font-family="Segoe UI, sans-serif" font-size="22">DROP DISCS / 4 IN A ROW</text>
  <g transform="translate(390 226)">
    <rect width="500" height="334" rx="28" fill="#1d3fa0"/>
    <g transform="translate(32 30)">
      <g fill="#08101c">
        <circle cx="0" cy="0" r="25"/><circle cx="72" cy="0" r="25"/><circle cx="144" cy="0" r="25"/><circle cx="216" cy="0" r="25"/><circle cx="288" cy="0" r="25"/><circle cx="360" cy="0" r="25"/><circle cx="432" cy="0" r="25"/>
        <circle cx="0" cy="54" r="25"/><circle cx="72" cy="54" r="25"/><circle cx="144" cy="54" r="25"/><circle cx="216" cy="54" r="25"/><circle cx="288" cy="54" r="25"/><circle cx="360" cy="54" r="25"/><circle cx="432" cy="54" r="25"/>
        <circle cx="0" cy="108" r="25"/><circle cx="72" cy="108" r="25"/><circle cx="144" cy="108" r="25"/><circle cx="216" cy="108" r="25"/><circle cx="288" cy="108" r="25"/><circle cx="360" cy="108" r="25"/><circle cx="432" cy="108" r="25"/>
        <circle cx="0" cy="162" r="25"/><circle cx="72" cy="162" r="25"/><circle cx="144" cy="162" r="25"/><circle cx="216" cy="162" r="25"/><circle cx="288" cy="162" r="25"/><circle cx="360" cy="162" r="25"/><circle cx="432" cy="162" r="25"/>
        <circle cx="0" cy="216" r="25"/><circle cx="72" cy="216" r="25"/><circle cx="144" cy="216" r="25"/><circle cx="216" cy="216" r="25"/><circle cx="288" cy="216" r="25"/><circle cx="360" cy="216" r="25"/><circle cx="432" cy="216" r="25"/>
        <circle cx="0" cy="270" r="25"/><circle cx="72" cy="270" r="25"/><circle cx="144" cy="270" r="25"/><circle cx="216" cy="270" r="25"/><circle cx="288" cy="270" r="25"/><circle cx="360" cy="270" r="25"/><circle cx="432" cy="270" r="25"/>
      </g>
      <g>
        <circle cx="144" cy="270" r="25" fill="#ff5d5d"/>
        <circle cx="216" cy="270" r="25" fill="#ff5d5d"/>
        <circle cx="288" cy="270" r="25" fill="#ff5d5d"/>
        <circle cx="360" cy="270" r="25" fill="#ff5d5d"/>
        <circle cx="216" cy="216" r="25" fill="#ffcf4d"/>
        <circle cx="288" cy="216" r="25" fill="#ffcf4d"/>
        <circle cx="360" cy="216" r="25" fill="#ffcf4d"/>
      </g>
      <path d="M144 270H360" stroke="#9df08a" stroke-width="10" stroke-linecap="round"/>
    </g>
  </g>
  <g transform="translate(514 604)">
    <rect width="252" height="42" rx="21" fill="#ffcf6d" fill-opacity=".17" stroke="#ffcf6d" stroke-opacity=".55"/>
    <text x="126" y="28" text-anchor="middle" fill="#f4f1e8" font-family="Segoe UI, sans-serif" font-size="18" font-weight="800">LINE UP FOUR</text>
  </g>
</svg>
