<svg width="1280" height="720" viewBox="0 0 1280 720" fill="none" xmlns="http://www.w3.org/2000/svg">
  <rect width="1280" height="720" fill="#0c1112"/>
  <circle cx="250" cy="125" r="230" fill="#d9a84e" opacity="0.13"/>
  <circle cx="1040" cy="590" r="250" fill="#8fb7ff" opacity="0.1"/>
  <rect x="88" y="76" width="1104" height="568" rx="42" fill="#141a1b" stroke="#f4f1e8" stroke-opacity="0.12"/>
  <text x="124" y="142" fill="#8f9997" font-family="Inter, Arial, sans-serif" font-size="22" font-weight="800" letter-spacing="5">STRATEGY / INTERNAL GAME</text>
  <text x="124" y="208" fill="#f4f1e8" font-family="Inter, Arial, sans-serif" font-size="72" font-weight="900">Nim</text>
  <text x="126" y="256" fill="#aab4b0" font-family="Inter, Arial, sans-serif" font-size="24">山から石を取り合う、短く鋭い読み合い</text>
  <g transform="translate(126 332)">
    <rect width="174" height="98" rx="18" fill="#080d18" stroke="#f4f1e8" stroke-opacity="0.12"/>
    <text x="28" y="38" fill="#8f9997" font-family="Inter, Arial, sans-serif" font-size="16" font-weight="800" letter-spacing="3">WIN</text>
    <text x="28" y="78" fill="#f4f1e8" font-family="Inter, Arial, sans-serif" font-size="40" font-weight="900">03</text>
  </g>
  <g transform="translate(324 332)">
    <rect width="174" height="98" rx="18" fill="#080d18" stroke="#f4f1e8" stroke-opacity="0.12"/>
    <text x="28" y="38" fill="#8f9997" font-family="Inter, Arial, sans-serif" font-size="16" font-weight="800" letter-spacing="3">STONES</text>
    <text x="28" y="78" fill="#f4f1e8" font-family="Inter, Arial, sans-serif" font-size="40" font-weight="900">12</text>
  </g>
  <g transform="translate(660 138)">
    <rect width="420" height="430" rx="34" fill="#080d18" stroke="#f4f1e8" stroke-opacity="0.12"/>
    <g transform="translate(54 58)">
      <text x="0" y="0" fill="#8f9997" font-family="Inter, Arial, sans-serif" font-size="18" font-weight="800">PILE 1</text>
      <circle cx="28" cy="52" r="22" fill="#d9a84e"/>
      <circle cx="82" cy="52" r="22" fill="#d9a84e"/>
      <circle cx="136" cy="52" r="22" fill="#d9a84e"/>
    </g>
    <g transform="translate(54 168)">
      <text x="0" y="0" fill="#8f9997" font-family="Inter, Arial, sans-serif" font-size="18" font-weight="800">PILE 2</text>
      <circle cx="28" cy="52" r="22" fill="#8fb7ff"/>
      <circle cx="82" cy="52" r="22" fill="#8fb7ff"/>
      <circle cx="136" cy="52" r="22" fill="#8fb7ff"/>
      <circle cx="190" cy="52" r="22" fill="#8fb7ff"/>
    </g>
    <g transform="translate(54 278)">
      <text x="0" y="0" fill="#8f9997" font-family="Inter, Arial, sans-serif" font-size="18" font-weight="800">PILE 3</text>
      <circle cx="28" cy="52" r="22" fill="#9df08a"/>
      <circle cx="82" cy="52" r="22" fill="#9df08a"/>
      <circle cx="136" cy="52" r="22" fill="#9df08a"/>
      <circle cx="190" cy="52" r="22" fill="#9df08a"/>
      <circle cx="244" cy="52" r="22" fill="#9df08a"/>
    </g>
  </g>
  <path d="M128 522h390" stroke="#f4f1e8" stroke-opacity="0.12"/>
  <text x="128" y="574" fill="#f4f1e8" font-family="Inter, Arial, sans-serif" font-size="28" font-weight="800">TAKE STONES, LEAVE TROUBLE</text>
</svg>
