<svg width="1280" height="720" viewBox="0 0 1280 720" fill="none" xmlns="http://www.w3.org/2000/svg">
  <rect width="1280" height="720" fill="#0b1015"/>
  <radialGradient id="g" cx="0" cy="0" r="1" gradientUnits="userSpaceOnUse" gradientTransform="translate(630 330) rotate(90) scale(420 650)">
    <stop stop-color="#9df08a" stop-opacity=".28"/>
    <stop offset="1" stop-color="#9df08a" stop-opacity="0"/>
  </radialGradient>
  <rect width="1280" height="720" fill="url(#g)"/>
  <rect x="90" y="70" width="1100" height="580" rx="42" fill="#141b20" stroke="#2f4538" stroke-width="3"/>
  <text x="150" y="142" fill="#9df08a" font-family="Verdana, sans-serif" font-size="28" font-weight="700" letter-spacing="5">PICTURE LOGIC</text>
  <text x="150" y="210" fill="#f4f1e8" font-family="Verdana, sans-serif" font-size="72" font-weight="800">Nonogram</text>
  <text x="150" y="260" fill="#a7b2b1" font-family="Verdana, sans-serif" font-size="28">Read the numbers. Reveal the picture.</text>
  <g transform="translate(620 125)">
    <rect x="0" y="0" width="420" height="420" rx="26" fill="#0f1519" stroke="#34464d" stroke-width="3"/>
    <g fill="#26333a" stroke="#455a60" stroke-width="2">
      <rect x="78" y="78" width="48" height="48"/><rect x="126" y="78" width="48" height="48"/><rect x="174" y="78" width="48" height="48"/><rect x="222" y="78" width="48" height="48"/><rect x="270" y="78" width="48" height="48"/>
      <rect x="78" y="126" width="48" height="48"/><rect x="126" y="126" width="48" height="48"/><rect x="174" y="126" width="48" height="48"/><rect x="222" y="126" width="48" height="48"/><rect x="270" y="126" width="48" height="48"/>
      <rect x="78" y="174" width="48" height="48"/><rect x="126" y="174" width="48" height="48"/><rect x="174" y="174" width="48" height="48"/><rect x="222" y="174" width="48" height="48"/><rect x="270" y="174" width="48" height="48"/>
      <rect x="78" y="222" width="48" height="48"/><rect x="126" y="222" width="48" height="48"/><rect x="174" y="222" width="48" height="48"/><rect x="222" y="222" width="48" height="48"/><rect x="270" y="222" width="48" height="48"/>
      <rect x="78" y="270" width="48" height="48"/><rect x="126" y="270" width="48" height="48"/><rect x="174" y="270" width="48" height="48"/><rect x="222" y="270" width="48" height="48"/><rect x="270" y="270" width="48" height="48"/>
    </g>
    <g fill="#9df08a">
      <rect x="126" y="78" width="48" height="48"/><rect x="222" y="78" width="48" height="48"/>
      <rect x="78" y="126" width="240" height="48"/>
      <rect x="78" y="174" width="240" height="48"/>
      <rect x="126" y="222" width="144" height="48"/>
      <rect x="174" y="270" width="48" height="48"/>
    </g>
    <g fill="#f4f1e8" font-family="Verdana, sans-serif" font-size="22" font-weight="800" text-anchor="middle">
      <text x="102" y="58">2</text><text x="150" y="58">4</text><text x="198" y="58">4</text><text x="246" y="58">4</text><text x="294" y="58">2</text>
      <text x="52" y="111">1 1</text><text x="52" y="159">5</text><text x="52" y="207">5</text><text x="52" y="255">3</text><text x="52" y="303">1</text>
    </g>
  </g>
  <rect x="150" y="515" width="360" height="62" rx="31" fill="#9df08a"/>
  <text x="330" y="556" fill="#07110a" font-family="Verdana, sans-serif" font-size="27" font-weight="800" text-anchor="middle">PICTURE COMPLETE</text>
</svg>
