<svg width="1280" height="720" viewBox="0 0 1280 720" fill="none" xmlns="http://www.w3.org/2000/svg">
  <rect width="1280" height="720" fill="#0c1014"/>
  <radialGradient id="glow" cx="0" cy="0" r="1" gradientUnits="userSpaceOnUse" gradientTransform="translate(640 340) rotate(90) scale(410 620)">
    <stop stop-color="#72efff" stop-opacity=".28"/>
    <stop offset="1" stop-color="#72efff" stop-opacity="0"/>
  </radialGradient>
  <rect width="1280" height="720" fill="url(#glow)"/>
  <rect x="96" y="70" width="1088" height="580" rx="42" fill="#141b20" stroke="#2c3b42" stroke-width="3"/>
  <text x="150" y="138" fill="#72efff" font-family="Verdana, sans-serif" font-size="28" font-weight="700" letter-spacing="5">SPEED PUZZLE</text>
  <text x="150" y="205" fill="#f4f1e8" font-family="Verdana, sans-serif" font-size="76" font-weight="800">1to50</text>
  <text x="150" y="255" fill="#a7b2b1" font-family="Verdana, sans-serif" font-size="28">Tap numbers in order. Keep your eyes moving.</text>
  <g transform="translate(628 126)">
    <rect x="0" y="0" width="420" height="420" rx="28" fill="#0f1519" stroke="#34464d" stroke-width="3"/>
    <g font-family="Verdana, sans-serif" font-size="42" font-weight="800" text-anchor="middle">
      <rect x="28" y="28" width="62" height="62" rx="16" fill="#72efff"/><text x="59" y="73" fill="#081014">1</text>
      <rect x="102" y="28" width="62" height="62" rx="16" fill="#1d2a30"/><text x="133" y="73" fill="#f4f1e8">14</text>
      <rect x="176" y="28" width="62" height="62" rx="16" fill="#1d2a30"/><text x="207" y="73" fill="#f4f1e8">7</text>
      <rect x="250" y="28" width="62" height="62" rx="16" fill="#1d2a30"/><text x="281" y="73" fill="#f4f1e8">22</text>
      <rect x="324" y="28" width="62" height="62" rx="16" fill="#1d2a30"/><text x="355" y="73" fill="#f4f1e8">9</text>
      <rect x="28" y="102" width="62" height="62" rx="16" fill="#1d2a30"/><text x="59" y="147" fill="#f4f1e8">18</text>
      <rect x="102" y="102" width="62" height="62" rx="16" fill="#d9a84e"/><text x="133" y="147" fill="#111">2</text>
      <rect x="176" y="102" width="62" height="62" rx="16" fill="#1d2a30"/><text x="207" y="147" fill="#f4f1e8">25</text>
      <rect x="250" y="102" width="62" height="62" rx="16" fill="#1d2a30"/><text x="281" y="147" fill="#f4f1e8">11</text>
      <rect x="324" y="102" width="62" height="62" rx="16" fill="#1d2a30"/><text x="355" y="147" fill="#f4f1e8">4</text>
      <rect x="28" y="176" width="62" height="62" rx="16" fill="#1d2a30"/><text x="59" y="221" fill="#f4f1e8">16</text>
      <rect x="102" y="176" width="62" height="62" rx="16" fill="#1d2a30"/><text x="133" y="221" fill="#f4f1e8">5</text>
      <rect x="176" y="176" width="62" height="62" rx="16" fill="#1d2a30"/><text x="207" y="221" fill="#f4f1e8">20</text>
      <rect x="250" y="176" width="62" height="62" rx="16" fill="#1d2a30"/><text x="281" y="221" fill="#f4f1e8">13</text>
      <rect x="324" y="176" width="62" height="62" rx="16" fill="#1d2a30"/><text x="355" y="221" fill="#f4f1e8">8</text>
      <rect x="28" y="250" width="62" height="62" rx="16" fill="#1d2a30"/><text x="59" y="295" fill="#f4f1e8">23</text>
      <rect x="102" y="250" width="62" height="62" rx="16" fill="#1d2a30"/><text x="133" y="295" fill="#f4f1e8">10</text>
      <rect x="176" y="250" width="62" height="62" rx="16" fill="#1d2a30"/><text x="207" y="295" fill="#f4f1e8">3</text>
      <rect x="250" y="250" width="62" height="62" rx="16" fill="#1d2a30"/><text x="281" y="295" fill="#f4f1e8">19</text>
      <rect x="324" y="250" width="62" height="62" rx="16" fill="#1d2a30"/><text x="355" y="295" fill="#f4f1e8">6</text>
      <rect x="28" y="324" width="62" height="62" rx="16" fill="#1d2a30"/><text x="59" y="369" fill="#f4f1e8">21</text>
      <rect x="102" y="324" width="62" height="62" rx="16" fill="#1d2a30"/><text x="133" y="369" fill="#f4f1e8">12</text>
      <rect x="176" y="324" width="62" height="62" rx="16" fill="#1d2a30"/><text x="207" y="369" fill="#f4f1e8">24</text>
      <rect x="250" y="324" width="62" height="62" rx="16" fill="#1d2a30"/><text x="281" y="369" fill="#f4f1e8">15</text>
      <rect x="324" y="324" width="62" height="62" rx="16" fill="#1d2a30"/><text x="355" y="369" fill="#f4f1e8">17</text>
    </g>
  </g>
  <rect x="150" y="515" width="360" height="62" rx="31" fill="#72efff"/>
  <text x="330" y="556" fill="#081014" font-family="Verdana, sans-serif" font-size="28" font-weight="800" text-anchor="middle">NEXT: 1</text>
</svg>
