<svg width="1280" height="720" viewBox="0 0 1280 720" fill="none" xmlns="http://www.w3.org/2000/svg">
  <rect width="1280" height="720" fill="#0b1015"/>
  <radialGradient id="g" cx="0" cy="0" r="1" gradientUnits="userSpaceOnUse" gradientTransform="translate(640 340) rotate(90) scale(420 650)">
    <stop stop-color="#d9a84e" stop-opacity=".28"/>
    <stop offset="1" stop-color="#d9a84e" stop-opacity="0"/>
  </radialGradient>
  <rect width="1280" height="720" fill="url(#g)"/>
  <rect x="94" y="70" width="1092" height="580" rx="42" fill="#141b20" stroke="#3d3320" stroke-width="3"/>
  <text x="150" y="142" fill="#d9a84e" font-family="Verdana, sans-serif" font-size="28" font-weight="700" letter-spacing="5">CARD GAME</text>
  <text x="150" y="210" fill="#f4f1e8" font-family="Verdana, sans-serif" font-size="76" font-weight="800">Poker</text>
  <text x="150" y="260" fill="#a7b2b1" font-family="Verdana, sans-serif" font-size="28">Draw once. Make the best five-card hand.</text>
  <g transform="translate(365 330)">
    <rect x="0" y="0" width="142" height="200" rx="18" fill="#f4f1e8"/>
    <text x="24" y="48" fill="#111820" font-family="Verdana, sans-serif" font-size="42" font-weight="800">A</text>
    <text x="92" y="150" fill="#111820" font-family="Verdana, sans-serif" font-size="70">♠</text>
    <rect x="162" y="-24" width="142" height="200" rx="18" fill="#f4f1e8"/>
    <text x="186" y="24" fill="#c9263a" font-family="Verdana, sans-serif" font-size="42" font-weight="800">K</text>
    <text x="254" y="126" fill="#c9263a" font-family="Verdana, sans-serif" font-size="70">♥</text>
    <rect x="324" y="0" width="142" height="200" rx="18" fill="#f4f1e8"/>
    <text x="348" y="48" fill="#c9263a" font-family="Verdana, sans-serif" font-size="42" font-weight="800">Q</text>
    <text x="416" y="150" fill="#c9263a" font-family="Verdana, sans-serif" font-size="70">♦</text>
    <rect x="486" y="-24" width="142" height="200" rx="18" fill="#f4f1e8"/>
    <text x="510" y="24" fill="#111820" font-family="Verdana, sans-serif" font-size="42" font-weight="800">J</text>
    <text x="578" y="126" fill="#111820" font-family="Verdana, sans-serif" font-size="70">♣</text>
    <rect x="648" y="0" width="142" height="200" rx="18" fill="#f4f1e8"/>
    <text x="672" y="48" fill="#111820" font-family="Verdana, sans-serif" font-size="42" font-weight="800">10</text>
    <text x="740" y="150" fill="#111820" font-family="Verdana, sans-serif" font-size="70">♠</text>
  </g>
  <rect x="150" y="515" width="360" height="62" rx="31" fill="#d9a84e"/>
  <text x="330" y="556" fill="#12100b" font-family="Verdana, sans-serif" font-size="27" font-weight="800" text-anchor="middle">ROYAL FLUSH</text>
</svg>
