<svg width="1280" height="720" viewBox="0 0 1280 720" fill="none" xmlns="http://www.w3.org/2000/svg">
  <rect width="1280" height="720" fill="#0c1112"/>
  <circle cx="220" cy="124" r="210" fill="#9df08a" opacity="0.12"/>
  <circle cx="1050" cy="138" r="230" fill="#ff7d7d" opacity="0.11"/>
  <circle cx="1040" cy="640" r="250" fill="#72efff" opacity="0.1"/>
  <circle cx="180" cy="604" r="220" fill="#ffcf6d" opacity="0.1"/>
  <rect x="88" y="76" width="1104" height="568" rx="42" fill="#141a1b" stroke="#f4f1e8" stroke-opacity="0.12"/>
  <text x="124" y="142" fill="#8f9997" font-family="Inter, Arial, sans-serif" font-size="22" font-weight="800" letter-spacing="5">MEMORY / INTERNAL GAME</text>
  <text x="124" y="206" fill="#f4f1e8" font-family="Inter, Arial, sans-serif" font-size="64" font-weight="900">Simon Says</text>
  <text x="126" y="252" fill="#aab4b0" font-family="Inter, Arial, sans-serif" font-size="24">光る順番を覚えて、同じ順番で押す記憶ゲーム</text>
  <g transform="translate(700 126)">
    <rect x="0" y="0" width="360" height="360" rx="48" fill="#060909" opacity="0.68" stroke="#f4f1e8" stroke-opacity="0.12"/>
    <rect x="26" y="26" width="146" height="146" rx="34" fill="url(#green)" stroke="#ffffff" stroke-opacity="0.16"/>
    <rect x="188" y="26" width="146" height="146" rx="34" fill="url(#red)" stroke="#ffffff" stroke-opacity="0.16"/>
    <rect x="26" y="188" width="146" height="146" rx="34" fill="url(#yellow)" stroke="#ffffff" stroke-opacity="0.16"/>
    <rect x="188" y="188" width="146" height="146" rx="34" fill="url(#blue)" stroke="#ffffff" stroke-opacity="0.16"/>
    <circle cx="180" cy="180" r="56" fill="#101617" stroke="#f4f1e8" stroke-opacity="0.18"/>
    <path d="M162 184c-10-4-16-13-16-25 0-17 13-31 30-31 10 0 19 5 24 13 4-2 8-3 13-3 16 0 29 13 29 29 0 8-4 16-10 21 5 5 8 12 8 20 0 16-13 29-29 29-8 0-15-3-20-8-6 8-15 13-26 13-17 0-31-14-31-31 0-12 7-23 18-27Z" fill="#f4f1e8" opacity="0.88"/>
  </g>
  <g transform="translate(126 336)">
    <rect width="168" height="94" rx="18" fill="#080d18" stroke="#f4f1e8" stroke-opacity="0.12"/>
    <text x="28" y="38" fill="#8f9997" font-family="Inter, Arial, sans-serif" font-size="16" font-weight="800" letter-spacing="3">LEVEL</text>
    <text x="28" y="76" fill="#f4f1e8" font-family="Inter, Arial, sans-serif" font-size="38" font-weight="900">08</text>
  </g>
  <g transform="translate(316 336)">
    <rect width="168" height="94" rx="18" fill="#080d18" stroke="#f4f1e8" stroke-opacity="0.12"/>
    <text x="28" y="38" fill="#8f9997" font-family="Inter, Arial, sans-serif" font-size="16" font-weight="800" letter-spacing="3">SCORE</text>
    <text x="28" y="76" fill="#f4f1e8" font-family="Inter, Arial, sans-serif" font-size="38" font-weight="900">80</text>
  </g>
  <path d="M128 520h390" stroke="#f4f1e8" stroke-opacity="0.12"/>
  <text x="128" y="570" fill="#f4f1e8" font-family="Inter, Arial, sans-serif" font-size="28" font-weight="800">WATCH → REMEMBER → REPEAT</text>
  <defs>
    <linearGradient id="green" x1="26" y1="26" x2="172" y2="172" gradientUnits="userSpaceOnUse">
      <stop stop-color="#48f08b"/>
      <stop offset="1" stop-color="#13753d"/>
    </linearGradient>
    <linearGradient id="red" x1="188" y1="26" x2="334" y2="172" gradientUnits="userSpaceOnUse">
      <stop stop-color="#ff8585"/>
      <stop offset="1" stop-color="#9e2028"/>
    </linearGradient>
    <linearGradient id="yellow" x1="26" y1="188" x2="172" y2="334" gradientUnits="userSpaceOnUse">
      <stop stop-color="#ffe07a"/>
      <stop offset="1" stop-color="#a96a13"/>
    </linearGradient>
    <linearGradient id="blue" x1="188" y1="188" x2="334" y2="334" gradientUnits="userSpaceOnUse">
      <stop stop-color="#70d4ff"/>
      <stop offset="1" stop-color="#205ea8"/>
    </linearGradient>
  </defs>
</svg>
