<svg width="1280" height="800" viewBox="0 0 1280 800" fill="none" xmlns="http://www.w3.org/2000/svg">
  <rect width="1280" height="800" fill="#101516"/>
  <circle cx="1010" cy="125" r="285" fill="#73D4FF" opacity=".16"/>
  <rect x="250" y="90" width="780" height="620" rx="18" fill="#192021" stroke="#F4F1E8" stroke-opacity=".16" stroke-width="3"/>
  <g transform="translate(390 145)">
    <rect width="500" height="500" rx="18" fill="#0B0F10" stroke="#F4F1E8" stroke-opacity=".18" stroke-width="4"/>
    <g font-family="Segoe UI, sans-serif" font-size="48" font-weight="900" text-anchor="middle" dominant-baseline="middle">
      <rect x="22" y="22" width="104" height="104" rx="14" fill="#EAF8FF"/><text x="74" y="74" fill="#102027">1</text>
      <rect x="136" y="22" width="104" height="104" rx="14" fill="#D7F1FF"/><text x="188" y="74" fill="#102027">2</text>
      <rect x="250" y="22" width="104" height="104" rx="14" fill="#C7EAFF"/><text x="302" y="74" fill="#102027">3</text>
      <rect x="364" y="22" width="104" height="104" rx="14" fill="#B8E4FF"/><text x="416" y="74" fill="#102027">4</text>
      <rect x="22" y="136" width="104" height="104" rx="14" fill="#A7DEFF"/><text x="74" y="188" fill="#102027">5</text>
      <rect x="136" y="136" width="104" height="104" rx="14" fill="#97D8FF"/><text x="188" y="188" fill="#102027">6</text>
      <rect x="250" y="136" width="104" height="104" rx="14" fill="#86D1FF"/><text x="302" y="188" fill="#102027">7</text>
      <rect x="364" y="136" width="104" height="104" rx="14" fill="#73D4FF"/><text x="416" y="188" fill="#102027">8</text>
      <rect x="22" y="250" width="104" height="104" rx="14" fill="#EAF8FF"/><text x="74" y="302" fill="#102027">9</text>
      <rect x="136" y="250" width="104" height="104" rx="14" fill="#D7F1FF"/><text x="188" y="302" fill="#102027">10</text>
      <rect x="250" y="250" width="104" height="104" rx="14" fill="#C7EAFF"/><text x="302" y="302" fill="#102027">11</text>
      <rect x="364" y="250" width="104" height="104" rx="14" fill="#B8E4FF"/><text x="416" y="302" fill="#102027">12</text>
      <rect x="22" y="364" width="104" height="104" rx="14" fill="#A7DEFF"/><text x="74" y="416" fill="#102027">13</text>
      <rect x="136" y="364" width="104" height="104" rx="14" fill="#97D8FF"/><text x="188" y="416" fill="#102027">14</text>
      <rect x="250" y="364" width="104" height="104" rx="14" fill="#86D1FF"/><text x="302" y="416" fill="#102027">15</text>
      <rect x="364" y="364" width="104" height="104" rx="14" fill="#162223" stroke="#73D4FF" stroke-opacity=".38" stroke-width="3"/>
    </g>
  </g>
  <text x="640" y="744" fill="#73D4FF" font-family="Segoe UI, sans-serif" font-size="44" font-weight="800" text-anchor="middle" letter-spacing=".16em">FIFTEEN PUZZLE / PLAY NOW</text>
</svg>
