<svg width="1280" height="720" viewBox="0 0 1280 720" fill="none" xmlns="http://www.w3.org/2000/svg">
  <rect width="1280" height="720" fill="#0c1112"/>
  <circle cx="1010" cy="150" r="250" fill="#ffcf6d" opacity="0.13"/>
  <circle cx="240" cy="610" r="250" fill="#72efff" opacity="0.1"/>
  <rect x="88" y="76" width="1104" height="568" rx="42" fill="#141a1b" stroke="#f4f1e8" stroke-opacity="0.12"/>
  <text x="124" y="142" fill="#8f9997" font-family="Inter, Arial, sans-serif" font-size="22" font-weight="800" letter-spacing="5">DICE / INTERNAL GAME</text>
  <text x="124" y="208" fill="#f4f1e8" font-family="Inter, Arial, sans-serif" font-size="68" font-weight="900">ヨットダイス</text>
  <text x="126" y="256" fill="#aab4b0" font-family="Inter, Arial, sans-serif" font-size="24">5個のサイコロで役を作り、合計点を伸ばす</text>
  <g transform="translate(124 336)">
    <rect width="96" height="96" rx="20" fill="#f4f1e8"/>
    <circle cx="30" cy="30" r="8" fill="#141a1b"/>
    <circle cx="66" cy="30" r="8" fill="#141a1b"/>
    <circle cx="48" cy="48" r="8" fill="#141a1b"/>
    <circle cx="30" cy="66" r="8" fill="#141a1b"/>
    <circle cx="66" cy="66" r="8" fill="#141a1b"/>
    <rect x="122" width="96" height="96" rx="20" fill="#ffcf6d"/>
    <circle cx="152" cy="30" r="8" fill="#141a1b"/>
    <circle cx="190" cy="66" r="8" fill="#141a1b"/>
    <rect x="244" width="96" height="96" rx="20" fill="#72efff"/>
    <circle cx="274" cy="30" r="8" fill="#141a1b"/>
    <circle cx="292" cy="48" r="8" fill="#141a1b"/>
    <circle cx="310" cy="66" r="8" fill="#141a1b"/>
    <rect x="366" width="96" height="96" rx="20" fill="#9df08a"/>
    <circle cx="396" cy="30" r="8" fill="#141a1b"/>
    <circle cx="432" cy="30" r="8" fill="#141a1b"/>
    <circle cx="396" cy="66" r="8" fill="#141a1b"/>
    <circle cx="432" cy="66" r="8" fill="#141a1b"/>
  </g>
  <g transform="translate(700 142)">
    <rect width="380" height="418" rx="34" fill="#080d18" stroke="#f4f1e8" stroke-opacity="0.12"/>
    <text x="38" y="62" fill="#8f9997" font-family="Inter, Arial, sans-serif" font-size="18" font-weight="800" letter-spacing="3">SCORE SHEET</text>
    <g transform="translate(38 100)">
      <rect width="304" height="52" rx="14" fill="#141a1b"/>
      <text x="18" y="34" fill="#f4f1e8" font-family="Inter, Arial, sans-serif" font-size="22" font-weight="900">フルハウス</text>
      <text x="250" y="34" fill="#ffcf6d" font-family="Inter, Arial, sans-serif" font-size="24" font-weight="900">25</text>
    </g>
    <g transform="translate(38 170)">
      <rect width="304" height="52" rx="14" fill="#141a1b"/>
      <text x="18" y="34" fill="#f4f1e8" font-family="Inter, Arial, sans-serif" font-size="22" font-weight="900">Lストレート</text>
      <text x="250" y="34" fill="#ffcf6d" font-family="Inter, Arial, sans-serif" font-size="24" font-weight="900">40</text>
    </g>
    <g transform="translate(38 240)">
      <rect width="304" height="52" rx="14" fill="#141a1b"/>
      <text x="18" y="34" fill="#f4f1e8" font-family="Inter, Arial, sans-serif" font-size="22" font-weight="900">ヨット</text>
      <text x="250" y="34" fill="#ffcf6d" font-family="Inter, Arial, sans-serif" font-size="24" font-weight="900">50</text>
    </g>
  </g>
  <path d="M128 522h390" stroke="#f4f1e8" stroke-opacity="0.12"/>
  <text x="128" y="574" fill="#f4f1e8" font-family="Inter, Arial, sans-serif" font-size="28" font-weight="800">ROLL → HOLD → SCORE</text>
</svg>
